<svg width="400" height="400" viewBox="0 0 400 400" fill="none" xmlns="http://www.w3.org/2000/svg">
<path fill-rule="evenodd" clip-rule="evenodd" d="M304.182 333.407C304.182 333.407 343.972 310.48 359.143 301.737C362.721 299.675 364.923 295.869 364.927 291.748C364.934 273.096 364.576 221.717 364.576 221.717L236.732 295.215L304.182 333.407Z" fill="url(#paint0_linear_917_38)"/>
<path fill-rule="evenodd" clip-rule="evenodd" d="M32 227.759C32 227.759 32 273.781 32 291.302C32 295.423 34.2015 299.236 37.7796 301.299C53.9769 310.638 98.6401 336.004 98.6401 336.004V188.625L32 227.759Z" fill="url(#paint1_linear_917_38)"/>
<path fill-rule="evenodd" clip-rule="evenodd" d="M259.731 44.7727C259.731 44.7727 220.157 22.1617 205.047 13.5267C201.473 11.4834 197.081 11.4911 193.515 13.5498C177.333 22.8736 132.631 49.021 132.631 49.021L260.328 121.81L259.731 44.7727Z" fill="url(#paint2_linear_917_38)"/>
<path fill-rule="evenodd" clip-rule="evenodd" d="M199.287 86.8405V116.824C199.287 126.348 194.209 135.156 185.954 139.939L43.9947 222.225C37.074 226.039 32.3084 233.273 32 241.635C32 241.635 32 145.581 32 115.512C32 110.013 34.938 104.934 39.7112 102.183C69.1178 85.2358 193.526 13.5469 193.526 13.5469C195.308 12.5195 197.297 12.0038 199.287 12V18.3069V86.8405Z" fill="url(#paint3_linear_917_38)"/>
<path fill-rule="evenodd" clip-rule="evenodd" d="M124.254 244.179C132.522 239.392 142.715 239.369 151.001 244.121L293.033 325.576C296.616 327.843 300.857 329.151 305.407 329.151C309.787 329.151 313.886 327.935 317.383 325.819H317.395C317.395 325.819 232.996 374.527 206.731 389.684C201.962 392.436 196.088 392.436 191.315 389.684C162.874 373.28 37.4865 300.949 37.4865 300.949C35.7645 299.921 34.3738 298.486 33.4031 296.808L49.5825 287.438C49.5825 287.438 60.6269 281.039 66.9369 277.387L124.254 244.179Z" fill="url(#paint4_linear_917_38)"/>
<path fill-rule="evenodd" clip-rule="evenodd" d="M364.977 281.428L364.965 291.689C364.965 293.742 364.418 295.718 363.423 297.437L298.472 259.824C289.226 254.469 279.919 249.082 271.915 244.445C263.683 239.678 258.605 230.912 258.582 221.419L258.158 57.6733C258.161 57.5539 258.161 57.4346 258.161 57.3157C258.161 48.688 253.412 41.1562 246.379 37.1808L246.371 37.1731C246.371 37.1731 331.024 86.0895 357.308 101.276C362.07 104.025 365 109.1 365 114.586L364.977 281.428Z" fill="url(#paint5_linear_917_38)"/>
<defs>
<linearGradient id="paint0_linear_917_38" x1="343.514" y1="288.234" x2="274.147" y2="304.03" gradientUnits="userSpaceOnUse">
<stop stop-color="#003E70"/>
<stop offset="1" stop-color="#117BBE"/>
</linearGradient>
<linearGradient id="paint1_linear_917_38" x1="40.7623" y1="233.153" x2="98.6298" y2="272.617" gradientUnits="userSpaceOnUse">
<stop stop-color="#003E70"/>
<stop offset="1" stop-color="#117BBE"/>
</linearGradient>
<linearGradient id="paint2_linear_917_38" x1="172.536" y1="67.0269" x2="260.237" y2="85.3737" gradientUnits="userSpaceOnUse">
<stop stop-color="#117BBE"/>
<stop offset="1" stop-color="#003D70"/>
</linearGradient>
<linearGradient id="paint3_linear_917_38" x1="173.308" y1="151.299" x2="43.634" y2="100.717" gradientUnits="userSpaceOnUse">
<stop stop-color="#00C0DD"/>
<stop offset="1" stop-color="#2460B0"/>
</linearGradient>
<linearGradient id="paint4_linear_917_38" x1="209.643" y1="286.749" x2="175.467" y2="366.95" gradientUnits="userSpaceOnUse">
<stop stop-color="#00C0DD"/>
<stop offset="1" stop-color="#0954A7"/>
</linearGradient>
<linearGradient id="paint5_linear_917_38" x1="365.123" y1="126.563" x2="258.138" y2="201.819" gradientUnits="userSpaceOnUse">
<stop stop-color="#2460B0"/>
<stop offset="1" stop-color="#00C0DD"/>
</linearGradient>
</defs>
</svg>
